<?xml version="1.0" encoding="utf-8"?>
<svg viewBox="129.02 126.15 218.891 47.25" xmlns="http://www.w3.org/2000/svg">
  <path d="M 131.644 123.272 L 121.994 123.272 L 132.854 102.542 C 133.227 101.809 133.914 101.319 134.914 101.072 C 135.207 100.999 135.567 100.962 135.994 100.962 C 136.421 100.962 136.887 101.082 137.394 101.322 C 137.901 101.562 138.301 101.942 138.594 102.462 L 150.244 123.272 L 139.154 123.272 L 138.294 121.112 L 132.384 121.112 L 131.644 123.272 Z M 135.384 110.872 L 133.054 116.782 L 137.474 116.782 L 135.384 110.872 ZM 161.497 110.902 C 160.771 110.902 160.407 111.489 160.407 112.662 L 160.407 123.272 L 152.277 123.272 L 152.277 106.282 L 156.767 106.282 L 158.717 108.932 C 159.451 107.919 160.461 107.115 161.747 106.522 C 163.041 105.929 164.247 105.632 165.367 105.632 C 167.427 105.632 169.061 106.179 170.267 107.272 C 171.474 108.365 172.077 109.835 172.077 111.682 L 172.077 123.272 L 163.907 123.272 L 163.907 115.072 C 163.907 112.292 163.104 110.902 161.497 110.902 ZM 183.382 100.262 L 183.382 108.092 C 184.608 106.452 186.472 105.632 188.972 105.632 C 189.678 105.632 190.435 105.799 191.242 106.132 C 192.042 106.459 192.738 106.932 193.332 107.552 C 194.605 108.872 195.242 110.622 195.242 112.802 L 195.242 123.272 L 187.072 123.272 L 187.072 115.902 C 187.072 114.435 186.835 113.229 186.362 112.282 C 185.882 111.342 185.325 110.872 184.692 110.872 C 183.818 110.872 183.382 111.469 183.382 112.662 L 183.382 123.272 L 175.252 123.272 L 175.252 100.262 L 183.382 100.262 ZM 205.445 123.272 L 205.445 101.442 L 207.665 101.442 L 219.585 109.942 L 219.585 101.442 L 227.285 101.442 L 227.285 123.272 L 224.345 123.272 L 213.115 115.762 L 213.115 123.272 L 205.445 123.272 ZM 236.783 130.272 L 236.783 125.432 C 237.25 125.485 237.76 125.562 238.313 125.662 C 238.866 125.762 239.4 125.812 239.913 125.812 C 240.433 125.812 240.916 125.755 241.363 125.642 C 241.803 125.522 242.196 125.289 242.543 124.942 C 243.29 124.195 243.666 122.935 243.673 121.162 C 242.08 122.909 240.15 123.782 237.883 123.782 C 235.623 123.789 233.736 123.072 232.223 121.632 C 230.716 120.192 229.963 118.135 229.963 115.462 C 229.963 113.549 230.383 111.849 231.223 110.362 C 232.063 108.869 233.19 107.709 234.603 106.882 C 236.023 106.049 237.533 105.632 239.133 105.632 C 240.733 105.632 242.116 106.159 243.283 107.212 C 243.663 107.545 243.99 107.932 244.263 108.372 L 246.233 106.282 L 250.703 106.282 L 250.703 123.272 C 250.716 126.779 249.136 129.085 245.963 130.192 C 244.683 130.639 243.223 130.862 241.583 130.862 C 239.936 130.862 238.336 130.665 236.783 130.272 Z M 243.353 116.302 L 243.353 111.432 C 243.02 111.239 242.673 111.142 242.313 111.142 C 241.953 111.142 241.606 111.215 241.273 111.362 C 240.58 111.662 239.96 112.149 239.413 112.822 C 238.493 113.889 238.033 115.022 238.033 116.222 C 238.033 117.022 238.27 117.585 238.743 117.912 C 239.143 118.179 239.763 118.175 240.603 117.902 C 241.403 117.635 242.32 117.102 243.353 116.302 ZM 261.934 106.282 L 261.934 114.192 C 261.934 117.185 262.658 118.682 264.104 118.682 C 264.838 118.682 265.264 118.325 265.384 117.612 C 265.418 117.392 265.434 117.152 265.434 116.892 L 265.434 106.282 L 273.554 106.282 L 273.554 123.272 L 269.074 123.272 L 267.114 120.602 C 265.961 122.182 264.288 123.209 262.094 123.682 C 259.421 124.255 257.261 123.799 255.614 122.312 C 254.374 121.192 253.754 119.712 253.754 117.872 L 253.754 106.282 L 261.934 106.282 ZM 277.911 127.752 L 277.911 122.902 C 278.878 123.169 280.088 123.302 281.541 123.302 C 282.468 123.302 283.085 122.909 283.391 122.122 C 283.485 121.889 283.531 121.642 283.531 121.382 C 283.531 121.129 283.485 120.862 283.391 120.582 L 276.361 106.282 L 284.511 106.282 L 287.451 112.852 L 290.201 106.282 L 297.361 106.282 L 290.981 122.152 C 290.135 124.219 289.201 125.745 288.181 126.732 C 286.928 127.932 285.385 128.532 283.551 128.532 C 281.045 128.532 279.165 128.272 277.911 127.752 ZM 309.563 111.462 L 309.593 111.142 C 309.593 110.342 309.22 109.942 308.473 109.942 C 307.613 110.022 307.057 110.465 306.803 111.272 C 306.677 111.652 306.587 112.095 306.533 112.602 C 306.487 113.109 306.413 113.649 306.313 114.222 L 309.303 113.552 L 309.563 111.462 Z M 307.743 117.362 C 307.743 117.362 307.493 117.362 306.993 117.362 C 306.76 117.362 306.533 117.355 306.313 117.342 C 306.313 118.422 306.89 119.012 308.043 119.112 C 308.363 119.139 308.673 119.152 308.973 119.152 C 309.753 119.152 310.727 118.975 311.893 118.622 C 313.067 118.269 314.117 117.692 315.043 116.892 L 315.893 121.142 C 313.86 122.902 310.79 123.782 306.683 123.782 C 304.323 123.782 302.293 123.092 300.593 121.712 C 298.753 120.212 297.833 118.129 297.833 115.462 C 297.833 113.462 298.353 111.662 299.393 110.062 C 300.36 108.609 301.667 107.502 303.313 106.742 C 304.967 105.989 306.75 105.612 308.663 105.612 C 311.143 105.612 313.02 106.152 314.293 107.232 C 315.56 108.319 316.193 109.659 316.193 111.252 C 316.187 112.845 315.423 114.262 313.903 115.502 C 312.377 116.742 310.323 117.362 307.743 117.362 ZM 328.262 110.902 C 327.536 110.902 327.172 111.489 327.172 112.662 L 327.172 123.272 L 319.042 123.272 L 319.042 106.282 L 323.532 106.282 L 325.482 108.932 C 326.216 107.919 327.226 107.115 328.512 106.522 C 329.806 105.929 331.012 105.632 332.132 105.632 C 334.192 105.632 335.826 106.179 337.032 107.272 C 338.239 108.365 338.842 109.835 338.842 111.682 L 338.842 123.272 L 330.672 123.272 L 330.672 115.072 C 330.672 112.292 329.869 110.902 328.262 110.902 Z" transform="matrix(1, 0, 0, 1, 7.488478183746338, 36.290321350097656)" style="fill: rgb(66, 185, 131); stroke: rgb(255, 255, 255); white-space: pre;"/>
</svg>